<svg width="6" height="6" viewBox="0 0 6 6" fill="none" xmlns="http://www.w3.org/2000/svg">
<path fill-rule="evenodd" clip-rule="evenodd" d="M5 1.99999C4.80222 1.99999 4.60887 1.94136 4.44443 1.83148C4.27998 1.7216 4.1518 1.56541 4.07612 1.38268C4.00043 1.19996 3.98063 0.998877 4.01922 0.804896C4.0578 0.610915 4.15304 0.432755 4.29289 0.292902C4.43274 0.15305 4.61093 0.0578058 4.80491 0.0192206C4.99889 -0.0193646 5.19995 0.000417724 5.38268 0.0761054C5.56541 0.151793 5.72158 0.279973 5.83146 0.444422C5.94135 0.608871 6 0.802213 6 0.999995C6 1.26521 5.89464 1.51955 5.70711 1.70709C5.51957 1.89462 5.26521 1.99999 5 1.99999ZM0.999998 5.99999C0.802217 5.99999 0.608875 5.94136 0.444426 5.83148C0.279977 5.7216 0.151804 5.56541 0.0761167 5.38269C0.000429042 5.19996 -0.0193686 4.99888 0.0192166 4.8049C0.0578019 4.61091 0.153038 4.43275 0.292891 4.2929C0.432743 4.15305 0.610926 4.05781 0.804907 4.01922C0.998888 3.98064 1.19995 4.00042 1.38268 4.07611C1.56541 4.15179 1.72158 4.27997 1.83146 4.44442C1.94135 4.60887 2 4.80221 2 4.99999C2 5.26521 1.89464 5.51955 1.70711 5.70709C1.51957 5.89462 1.26521 5.99999 0.999998 5.99999ZM0.999998 1.99999C0.802217 1.99999 0.608875 1.94136 0.444426 1.83148C0.279977 1.7216 0.151804 1.56541 0.0761167 1.38268C0.000429042 1.19996 -0.0193686 0.998877 0.0192166 0.804896C0.0578019 0.610915 0.153038 0.432755 0.292891 0.292902C0.432743 0.15305 0.610926 0.0578058 0.804907 0.0192206C0.998888 -0.0193646 1.19995 0.000417724 1.38268 0.0761054C1.56541 0.151793 1.72158 0.279973 1.83146 0.444422C1.94135 0.608871 2 0.802213 2 0.999995C2 1.26521 1.89464 1.51955 1.70711 1.70709C1.51957 1.89462 1.26521 1.99999 0.999998 1.99999ZM5 3.99999C5.19778 3.99999 5.39112 4.05863 5.55557 4.16851C5.72002 4.27839 5.84819 4.43458 5.92388 4.6173C5.99957 4.80003 6.01936 5.00111 5.98078 5.19509C5.94219 5.38907 5.84696 5.56723 5.70711 5.70709C5.56725 5.84694 5.38907 5.94218 5.19509 5.98077C5.00111 6.01935 4.80004 5.99957 4.61732 5.92388C4.43459 5.8482 4.27841 5.72002 4.16853 5.55557C4.05865 5.39112 4 5.19778 4 4.99999C4 4.73478 4.10535 4.48044 4.29289 4.2929C4.48043 4.10537 4.73478 3.99999 5 3.99999Z" fill="#242533"/>
</svg>
