<svg width="12" height="12" viewBox="0 0 12 12" fill="none" xmlns="http://www.w3.org/2000/svg">
<path fill-rule="evenodd" clip-rule="evenodd" d="M10.875 1.125C10.9745 1.125 11.0698 1.16451 11.1402 1.23483C11.2105 1.30516 11.25 1.40054 11.25 1.5V5.1C11.25 5.34623 11.2015 5.59005 11.1073 5.81753C11.013 6.04502 10.8749 6.25172 10.7008 6.42583C10.5267 6.59993 10.32 6.73805 10.0925 6.83227C9.86504 6.9265 9.62123 6.975 9.375 6.975H2.03025L4.5405 9.4845C4.61091 9.55491 4.65047 9.65042 4.65047 9.75C4.65047 9.84958 4.61091 9.94508 4.5405 10.0155C4.47008 10.0859 4.37458 10.1255 4.275 10.1255C4.17542 10.1255 4.07991 10.0859 4.0095 10.0155L0.859499 6.8655C0.824577 6.83067 0.796869 6.78928 0.777965 6.74372C0.75906 6.69817 0.749329 6.64933 0.749329 6.6C0.749329 6.55067 0.75906 6.50183 0.777965 6.45627C0.796869 6.41072 0.824577 6.36933 0.859499 6.3345L3.8595 3.3345C3.92991 3.26408 4.02542 3.22453 4.125 3.22453C4.22458 3.22453 4.32008 3.26408 4.3905 3.3345C4.46091 3.40491 4.50047 3.50042 4.50047 3.6C4.50047 3.69958 4.46091 3.79508 4.3905 3.8655L2.03025 6.225H9.375C9.67337 6.225 9.95952 6.10647 10.1705 5.89549C10.3815 5.68452 10.5 5.39837 10.5 5.1V1.5C10.5 1.40054 10.5395 1.30516 10.6098 1.23483C10.6802 1.16451 10.7755 1.125 10.875 1.125Z" fill="#838383"/>
</svg>
