<svg width="16" height="16" viewBox="0 0 16 16" fill="none" xmlns="http://www.w3.org/2000/svg">
<path fill-rule="evenodd" clip-rule="evenodd" d="M8.6 1C10.2 1.1 11.7 1.9 12.8 3C14.1 4.4 14.8 6.1 14.8 8.1C14.8 9.7 14.2 11.2 13.2 12.5C12.2 13.7 10.8 14.6 9.2 14.9C7.6 15.2 6 15 4.6 14.2C3.2 13.4 2.1 12.2 1.5 10.7C0.899997 9.2 0.799997 7.5 1.3 6C1.8 4.4 2.7 3.1 4.1 2.2C5.4 1.3 7 0.900001 8.6 1ZM9.1 13.9C10.4 13.6 11.6 12.9 12.5 11.8C13.3 10.7 13.8 9.4 13.7 8C13.7 6.4 13.1 4.8 12 3.7C11 2.7 9.8 2.1 8.4 2C7.1 1.9 5.7 2.2 4.6 3C3.5 3.8 2.7 4.9 2.3 6.3C1.9 7.6 1.9 9 2.5 10.3C3.1 11.6 4 12.6 5.2 13.3C6.4 14 7.8 14.2 9.1 13.9ZM7.9 7.5L10.3 5L11 5.7L8.6 8.2L11 10.7L10.3 11.4L7.9 8.9L5.5 11.4L4.8 10.7L7.2 8.2L4.8 5.7L5.5 5L7.9 7.5Z" fill="#E78933"/>
</svg>
