<svg width="12" height="13" viewBox="0 0 12 13" fill="none" xmlns="http://www.w3.org/2000/svg">
<g clipPath="url(#clip0_1_8327)">
<path d="M7.5 11H4.5V5.5H7.5V11ZM8.5 11V5.5H11V10.5C11 10.6326 10.9473 10.7598 10.8536 10.8536C10.7598 10.9473 10.6326 11 10.5 11H8.5ZM3.5 11H1.5C1.36739 11 1.24021 10.9473 1.14645 10.8536C1.05268 10.7598 1 10.6326 1 10.5V5.5H3.5V11ZM11 4.5H1V2.5C1 2.36739 1.05268 2.24021 1.14645 2.14645C1.24021 2.05268 1.36739 2 1.5 2H10.5C10.6326 2 10.7598 2.05268 10.8536 2.14645C10.9473 2.24021 11 2.36739 11 2.5V4.5Z" fill="#616161"/>
</g>
<defs>
<clipPath id="clip0_1_8327">
<rect width="12" height="12" fill="white" transform="translate(0 0.5)"/>
</clipPath>
</defs>
</svg>
